<?xml version="1.0" encoding="utf-8"?>
<!-- Generator: Adobe Illustrator 24.3.0, SVG Export Plug-In . SVG Version: 6.00 Build 0)  -->
<svg version="1.1" xmlns="http://www.w3.org/2000/svg" xmlns:xlink="http://www.w3.org/1999/xlink" x="0px" y="0px"
	 viewBox="0 0 599.1 184.26" style="enable-background:new 0 0 599.1 184.26;" xml:space="preserve">
<style type="text/css">
	.st0{display:none;}
	.st1{display:inline;fill:#DA3418;}
	.st2{fill:#040000;}
	.st3{fill:#DA3418;}
</style>
<g id="レイヤー_3" class="st0">
	<path class="st1" d="M196.82,143.56c0-56.74,46-102.73,102.73-102.73s102.73,46,102.73,102.73H196.82z"/>
</g>
<g id="菊池電競">
	<g>
		<rect x="150.57" y="11.89" width="42.8" height="20.22"/>
		<path d="M174.64,49.91h-24.06v20.22h5.4C161.69,62.93,167.93,56.17,174.64,49.91z"/>
		<path d="M225.6,11.89h-20.22v14.83c6.49-3.9,13.24-7.41,20.22-10.49V11.89z"/>
		<path d="M260.81,0.01h-20.22v10.36c6.58-2.24,13.33-4.1,20.22-5.59V0.01z"/>
		<polygon class="st2" points="37.76,43.99 57.98,43.99 57.98,32.11 88.73,32.11 88.73,43.99 108.95,43.99 108.95,32.11 
			146.27,32.11 146.27,11.89 108.95,11.89 108.95,0.01 88.73,0.01 88.73,11.89 57.98,11.89 57.98,0.01 37.76,0.01 37.76,11.89 
			0.06,11.89 0.06,32.11 37.76,32.11 		"/>
		<rect x="19.32" y="90.98" width="20.22" height="20.22"/>
		<rect x="19.32" y="143.2" width="20.22" height="20.22"/>
		<rect x="71.97" y="90.98" width="20.22" height="20.22"/>
		<rect x="71.97" y="143.2" width="20.22" height="20.22"/>
		<path d="M146.27,70.13V49.91h-20.22H0.06v20.22h125.99v54.9c5-14.75,11.84-28.65,20.22-41.45V70.13z"/>
		<path d="M117.47,164.05h-8.52l-0.3,20.22h17.1h-9.35v-0.4h0C116.4,177.17,116.77,170.56,117.47,164.05z"/>
		<polygon points="66.9,76.05 46.68,76.05 46.68,117.09 8.98,117.09 8.98,137.31 46.68,137.31 46.68,184.27 66.9,184.27 
			66.9,137.31 107.75,137.31 107.75,117.09 66.9,117.09 		"/>
		<path d="M499.37,0.65h-20.22v11.24h-23.28v20.22h4.02v17.8h-8.72v20.22h71.48V49.91h-3.06v-17.8h3.06V11.89h-23.28V0.65z
			 M499.37,49.91h-19.26v-17.8h19.26V49.91z"/>
		<path d="M582.52,137.31h10.11v-9.32v-10.9V97.27V77.05v-0.07h-20.22v0.07h-25.1v-0.07h-20.22v0.07v20.22v19.82v10.9v9.32h10.11
			v46.96h20.22v-46.96h4.88v26.74v20.22h20.22h16.64v-20.22h-16.64V137.31z M572.41,117.09h-25.1V97.27h25.1V117.09z"/>
		<path d="M502.43,77.05h-25.1v-0.07h-20.22v0.07v13.19c16.32,27.4,25.71,59.41,25.71,93.62h0v0.4h4.62v-46.91h4.88v42.63l0.81,4.28
			h19.41h10.11v-20.22h-10.11v-26.69h10.11v-9.37v-10.85V97.27V77.05v-0.07h-20.22V77.05z M502.43,117.13h-25.1V97.27h25.1V117.13z"
			/>
		<path d="M589.57,49.91v-17.8h3.06V11.89h-23.28V0.65h-20.22v11.24h-23.28v20.22h4.02v17.8h-4.02v20.22h73.31V49.91H589.57z
			 M569.35,49.91h-19.26v-17.8h19.26V49.91z"/>
		<path d="M437.69,20.87V0.65h-55.26H362.2h-53.56v0.22c26.82,1.3,52.13,8.37,74.71,20H437.69z"/>
		<path d="M427.58,49.91v2.86c7.37,7.2,14.14,15.01,20.22,23.36V29.69h-10.96h-9.26h-28.96c9.26,5.96,17.94,12.74,25.96,20.22
			H427.58z"/>
		<path class="st3" d="M338.98,137.4h24.08v-25.77h-24.08V137.4z M340.91,119.46h20.22v10.11h-20.22V119.46z"/>
		<path class="st3" d="M382.43,29.69h16.19c-4.93-3.17-10.03-6.12-15.27-8.81h-0.93V29.69z"/>
		<polygon class="st3" points="407.36,157.62 383.28,157.62 383.28,164.05 427.58,164.05 427.58,157.62 415.11,157.62 		"/>
		<path class="st3" d="M240.59,49.91V10.37c-5.1,1.74-10.1,3.7-14.99,5.86v33.68H240.59z"/>
		<path class="st3" d="M126.05,125.03c-4.22,12.46-7.13,25.52-8.58,39.02h8.58V125.03z"/>
		<path class="st3" d="M467.22,183.86v-46.21h-10.11v-9.39v-10.87V97.48v-7.05c-2.89-4.86-6-9.58-9.31-14.14v7.38h-20.22v-30.8
			c-0.99-0.97-1.99-1.92-3-2.87h-42.16v33.66H362.2V50.02h-43.45v33.66h-20.22V29.75h9.26h10.96h43.45v-8.83h-53.56V0.88
			c-2.99-0.15-6.01-0.22-9.04-0.22c-13.32,0-26.29,1.44-38.8,4.14v45.22h13.43h20.22v20.27v47.06h-20.22V70.28h-13.43v67.33h-20.22
			V70.28H225.6v94.12h48.64v-26.8h20.22v26.8v19.46h-89.08V70.13h-8.29V49.91h8.29V26.72c-11.06,6.65-21.36,14.43-30.74,23.19h18.74
			v20.22h-37.4c-3.43,4.33-6.67,8.82-9.7,13.45v80.47v19.82h-30.07v0.4h50.82h38.36h1.56h18.66h48.64h20.22h68.6h28.58h56.17h19.42
			h15.6v-0.4H467.22z M193.37,164.05v19.82h-42.8v-19.82h22.58v-46.96h20.22V164.05z M394.89,53.15h20.22v10.13h-20.22V53.15z
			 M394.89,72.38h20.22v10.13h-20.22V72.38z M330.37,53.15h20.22v10.13h-20.22V53.15z M330.37,72.38h20.22v10.13h-20.22V72.38z
			 M447.8,183.86h-84.74v-19.46v-6.44h-24.08h-8.61h-11.61V91.61h11.51h8.71h68.38h7.75h12.47v66.36h20.22v6.44h0V183.86z"/>
		<path class="st3" d="M407.36,111.63h-24.08v25.77h24.08V111.63z M405.43,129.57h-20.22v-10.11h20.22V129.57z"/>
	</g>
</g>
</svg>
