<?xml version="1.0" encoding="utf-8"?>
<!-- Generator: Adobe Illustrator 24.3.0, SVG Export Plug-In . SVG Version: 6.00 Build 0)  -->
<svg version="1.1" id="レイヤー_1" xmlns="http://www.w3.org/2000/svg" xmlns:xlink="http://www.w3.org/1999/xlink" x="0px"
	 y="0px" viewBox="0 0 208.9 44.3" style="enable-background:new 0 0 208.9 44.3;" xml:space="preserve">
<style type="text/css">
	.st0{fill:none;stroke:#E83015;stroke-width:1.4223;stroke-miterlimit:10;}
</style>
<g>
	<path class="st0" d="M25.4,43.3V37H15.3v6.3H0.7V17.8c0-12.7,2.9-17,16.4-17h5.7c13.5,0,17.1,4.4,17.1,17v25.5H25.4z M25.4,17.8
		c0-2.7-0.4-3.4-2.8-3.4H18c-2.3,0-2.7,0.8-2.7,3.4v5.9h10.1V17.8z"/>
	<path class="st0" d="M71.1,43.3H58.3c-9.4,0-12.2-4.7-12.2-12.9v-29h14.7v11.3c0.9-0.2,1.9-0.3,2.9-0.3h7.8
		c8.1,0,11.8,4.8,11.8,12.9v5C83.3,39,80.2,43.3,71.1,43.3z M68.6,27.4c0-0.8-0.4-1.4-1.6-1.4h-4.7c-0.7,0-1.4,0.3-1.4,1.2v1.1
		c0,0.8,0.4,1.4,1.4,1.4H67c1.2,0,1.6-0.5,1.6-1.5V27.4z"/>
	<path class="st0" d="M113.3,43.6h-11.5c-9.4,0-13.5-4.4-13.5-12.6v-6.3c0-8,4.2-12.5,13.5-12.5h11.5c9.6,0,13.3,5,13.3,12.3v6.8
		C126.6,38.6,122.9,43.6,113.3,43.6z M112.7,27.2c0-1-0.6-1.9-2-1.9h-6.5c-1.6,0-2.1,1-2.1,1.9v1.3c0,1.2,0.4,2,2.1,2h6.5
		c1.7,0,2-1.1,2-2V27.2z"/>
	<path class="st0" d="M157.3,43.4h-16.6c-6.8,0-10.6-2.9-10.6-10.9v-20h14.7v15.3c0,1.2,0.6,2,1.7,2h5c1.1,0,1.7-0.5,1.7-2V12.4H168
		v20C168,39.5,164,43.4,157.3,43.4z"/>
	<path class="st0" d="M191.6,25.8v2.5c0,1.4,0.2,1.6,1.8,1.6h14.1v13.4h-18.9c-8.5,0-11.5-4-11.5-10.1v-7.4h-6.4V12.4h6.4V6.5h14.5
		v5.8h16.6v13.5H191.6z"/>
</g>
</svg>
