<?xml version="1.0" encoding="utf-8"?>
<!-- Generator: Adobe Illustrator 24.3.0, SVG Export Plug-In . SVG Version: 6.00 Build 0)  -->
<svg version="1.1" id="レイヤー_1" xmlns="http://www.w3.org/2000/svg" xmlns:xlink="http://www.w3.org/1999/xlink" x="0px"
	 y="0px" viewBox="0 0 299.4 44.3" style="enable-background:new 0 0 299.4 44.3;" xml:space="preserve">
<style type="text/css">
	.st0{fill:none;stroke:#DA3418;stroke-width:2;stroke-miterlimit:10;}
</style>
<g>
	<path class="st0" d="M23,44.3h-2.5C5.5,44.3,0,39.6,0,25.3v-5.9C0,5.5,4.9,0,20.3,0h2.4c14,0,19.8,5.7,19.8,15.9V18h-15v-0.6
		c0-2.2-1.5-3.3-4.8-3.3h-1.7c-4.1,0-5.4,1.8-5.4,5.2v5.9c0,3.8,2.3,5,5.6,5H23c3.6,0,4.8-1.7,4.8-3.7v-1.2h14.9v2.2
		C42.7,39.3,36.9,44.3,23,44.3z"/>
	<path class="st0" d="M73,43.9H61.2c-9.6,0-13.8-4.5-13.8-12.9v-6.5c0-8.2,4.3-12.8,13.8-12.8H73c9.8,0,13.6,5.1,13.6,12.6v6.9
		C86.5,38.8,82.8,43.9,73,43.9z M72.4,27.1c0-1-0.6-2-2.1-2h-6.6c-1.6,0-2.1,1-2.1,2v1.4c0,1.2,0.4,2,2.1,2h6.6c1.7,0,2.1-1.2,2.1-2
		V27.1z"/>
	<path class="st0" d="M114.8,43.6v-15c0-2-1-2.7-2.8-2.7h-3.4c-1.9,0-3.1,1-3.1,2.7v15H90.3V23.4c0-7,3.9-11.4,11-11.4h17.1
		c7.1,0,11.7,4.5,11.7,11.4v20.2H114.8z"/>
	<path class="st0" d="M154.7,25.7v2.5c0,1.4,0.2,1.7,1.9,1.7H171v13.7h-19.3c-8.7,0-11.8-4.1-11.8-10.3v-7.5h-6.6V12h6.6V6h14.8v6
		h17v13.8H154.7z"/>
	<path class="st0" d="M205.3,43.6h-19.5c-6.9,0-10.7-3.8-10.7-8.9v-2.2c0-5,3.7-8.3,10.1-8.3h15.5c0-1.1-0.5-1.7-1.9-1.7h-22V11.8
		h27.1c9.1,0,11.7,4.5,11.7,12.5v10.9C215.6,40.3,212.1,43.6,205.3,43.6z M200.5,33c0-0.4-0.3-0.8-1.2-0.8h-7.9
		c-1,0-1.3,0.3-1.3,0.8v0.4c0,0.5,0.3,0.9,1.3,0.9h7.9c0.9,0,1.2-0.3,1.2-0.9V33z"/>
	<path class="st0" d="M234,43.6c-11.1,0-14.3-5-14.3-13.5v-4.6c0-8.4,3.4-13.5,14.2-13.5h24V26h-21.4c-1.6,0-2,0.5-2,1.3v1.3
		c0,0.9,0.7,1.3,2.1,1.3h21.3v13.9H234z"/>
	<path class="st0" d="M282.4,25.7v2.5c0,1.4,0.2,1.7,1.9,1.7h14.4v13.7h-19.3c-8.7,0-11.8-4.1-11.8-10.3v-7.5H261V12h6.6V6h14.8v6
		h17v13.8H282.4z"/>
</g>
</svg>
