<?xml version="1.0" encoding="utf-8"?>
<!-- Generator: Adobe Illustrator 24.3.0, SVG Export Plug-In . SVG Version: 6.00 Build 0)  -->
<svg version="1.1" id="レイヤー_1" xmlns="http://www.w3.org/2000/svg" xmlns:xlink="http://www.w3.org/1999/xlink" x="0px"
	 y="0px" viewBox="0 0 175.1 43.5" style="enable-background:new 0 0 175.1 43.5;" xml:space="preserve">
<style type="text/css">
	.st0{fill:none;stroke:#DA3418;stroke-width:2;}
</style>
<g>
	<path class="st0" d="M32.3,42.5c-6.45,0-9.85-4.4-12-10.15L15.5,19.5c-0.1-0.45-0.25-0.6-0.4-0.6c-0.2,0-0.3,0.2-0.3,0.65v22.5H1
		v-28.7C1,5.15,5.85,1,12.6,1c7.2,0,9.95,4.4,11.35,8.45l5,14.45c0.1,0.55,0.2,0.7,0.5,0.7c0.2,0,0.4-0.15,0.4-0.7V1.35H43.7V29.9
		C43.7,38.65,39.35,42.5,32.3,42.5z"/>
	<path class="st0" d="M77.25,30.25h-15.3c0.1,1,0.55,1.75,2.15,1.75h21.6v10.1H59.85c-7.7,0-10.9-3.45-10.9-11.6V21
		c0-4.6,2.9-9.3,10.05-9.3h17.7c6.55,0,9.8,3.5,9.8,8.95v1.6C86.5,27.25,84.4,30.25,77.25,30.25z M73.05,21.6
		c0-0.6-0.45-1.1-1.3-1.1h-7.7c-1.3,0-2.15,0.75-2.15,1.95v0.45h9.85c0.75,0,1.3-0.3,1.3-1.05V21.6z"/>
	<path class="st0" d="M121.4,42.1h-18.85c-7.7,0-12.15-4.65-12.15-11.7V11.95h13.25V27c0,1.9,0.9,2.4,2.8,2.4h0.3V11.95h10.35V29.4
		h0.4c1.9,0,2.8-0.5,2.8-2.4V11.95h13.25V30.4C133.55,37.45,129.15,42.1,121.4,42.1z"/>
	<path class="st0" d="M162.75,42.05H137.1V31.7h20.35c1.15,0,1.35-0.25,1.35-0.75V30.8c0-0.55-0.35-0.85-1.35-0.85H147
		c-7.3,0-10.55-2.7-10.55-8.7v-0.6c0-6.75,4.25-8.85,10.55-8.85h26v9.05h-19.85c-1.05,0-1.45,0.3-1.45,0.85v0.1
		c0,0.5,0.4,0.8,1.45,0.8h9.6c7.45,0,11.35,2.2,11.35,8.5v0.7C174.1,37.85,171.45,42.05,162.75,42.05z"/>
</g>
</svg>
