<?xml version="1.0" encoding="utf-8"?>
<!-- Generator: Adobe Illustrator 24.3.0, SVG Export Plug-In . SVG Version: 6.00 Build 0)  -->
<svg version="1.1" id="レイヤー_1" xmlns="http://www.w3.org/2000/svg" xmlns:xlink="http://www.w3.org/1999/xlink" x="0px"
	 y="0px" viewBox="0 0 278.75 42.85" style="enable-background:new 0 0 278.75 42.85;" xml:space="preserve">
<style type="text/css">
	.st0{fill:none;stroke:#DA3418;stroke-width:2;}
</style>
<g>
	<path class="st0" d="M26.9,33.45H15.85v8.35H1V1h26c8.25,0,13.85,4,13.85,14.85v3.25C40.85,27.65,36.65,33.45,26.9,33.45z
		 M25.9,17.1c0-2.45-0.8-2.75-3-2.75h-7.05v5.6h7.05c2.15,0,3-0.6,3-2.4V17.1z"/>
	<path class="st0" d="M75.1,41.85H56.55c-6.6,0-10.25-3.6-10.25-8.45v-2.1c0-4.8,3.55-7.9,9.6-7.9h14.8c0-1.05-0.45-1.6-1.85-1.6
		h-21V11.55H73.7c8.65,0,11.15,4.3,11.15,11.95v10.4C84.85,38.7,81.5,41.85,75.1,41.85z M70.45,31.7c0-0.4-0.3-0.8-1.1-0.8H61.8
		c-0.95,0-1.2,0.3-1.2,0.8v0.4c0,0.5,0.25,0.85,1.2,0.85h7.55c0.85,0,1.1-0.25,1.1-0.85V31.7z"/>
	<path class="st0" d="M107.65,24.95c-3.1,0-4.55,2.05-4.55,4.05v12.85H88.75V28.7c0-12,7.2-17.05,15.7-17.05h15.85v13.3H107.65z"/>
	<path class="st0" d="M143.55,24.8v2.4c0,1.35,0.2,1.6,1.8,1.6h13.75v13.05h-18.45c-8.3,0-11.25-3.9-11.25-9.85v-7.2h-6.25V11.65
		h6.25v-5.7h14.15v5.7h16.25V24.8H143.55z"/>
	<path class="st0" d="M186.1,41.85V27.5c0-1.9-0.95-2.55-2.7-2.55h-3.2c-1.85,0-2.95,0.95-2.95,2.55v14.35H162.7v-19.3
		c0-6.65,3.75-10.9,10.5-10.9h16.35c6.75,0,11.2,4.25,11.2,10.9v19.3H186.1z"/>
	<path class="st0" d="M233.05,30h-15.3c0.1,1,0.55,1.75,2.15,1.75h21.6v10.1h-25.85c-7.7,0-10.9-3.45-10.9-11.6v-9.5
		c0-4.6,2.9-9.3,10.05-9.3h17.7c6.55,0,9.8,3.5,9.8,8.95V22C242.3,27,240.2,30,233.05,30z M228.85,21.35c0-0.6-0.45-1.1-1.3-1.1
		h-7.7c-1.3,0-2.15,0.75-2.15,1.95v0.45h9.85c0.75,0,1.3-0.3,1.3-1.05V21.35z"/>
	<path class="st0" d="M265.1,24.95c-3.1,0-4.55,2.05-4.55,4.05v12.85H246.2V28.7c0-12,7.2-17.05,15.7-17.05h15.85v13.3H265.1z"/>
</g>
</svg>
