<?xml version="1.0" encoding="utf-8"?>
<!-- Generator: Adobe Illustrator 24.3.0, SVG Export Plug-In . SVG Version: 6.00 Build 0)  -->
<svg version="1.1" id="レイヤー_1" xmlns="http://www.w3.org/2000/svg" xmlns:xlink="http://www.w3.org/1999/xlink" x="0px"
	 y="0px" viewBox="0 0 212.55 42.85" style="enable-background:new 0 0 212.55 42.85;" xml:space="preserve">
<style type="text/css">
	.st0{fill:none;stroke:#DA3418;stroke-width:2;stroke-miterlimit:10;}
</style>
<g>
	<path class="st0" d="M29,14.3v27.5H13.75V14.3H1V1h40.05v13.3H29z"/>
	<path class="st0" d="M73.05,30h-15.3c0.1,1,0.55,1.75,2.15,1.75h21.6v10.1H55.65c-7.7,0-10.9-3.45-10.9-11.6v-9.5
		c0-4.6,2.9-9.3,10.05-9.3h17.7c6.55,0,9.8,3.5,9.8,8.95V22C82.3,27,80.2,30,73.05,30z M68.85,21.35c0-0.6-0.45-1.1-1.3-1.1h-7.7
		c-1.3,0-2.15,0.75-2.15,1.95v0.45h9.85c0.75,0,1.3-0.3,1.3-1.05V21.35z"/>
	<path class="st0" d="M115.35,41.85H96.8c-6.6,0-10.25-3.6-10.25-8.45v-2.1c0-4.8,3.55-7.9,9.6-7.9h14.8c0-1.05-0.45-1.6-1.85-1.6
		h-21V11.55h25.85c8.65,0,11.15,4.3,11.15,11.95v10.4C125.1,38.7,121.75,41.85,115.35,41.85z M110.7,31.7c0-0.4-0.3-0.8-1.1-0.8
		h-7.55c-0.95,0-1.2,0.3-1.2,0.8v0.4c0,0.5,0.25,0.85,1.2,0.85h7.55c0.85,0,1.1-0.25,1.1-0.85V31.7z"/>
	<path class="st0" d="M157.7,41.85V26.6c0-1.5-0.5-2.15-2.5-2.15v17.4h-10.35v-17.4c-1.5,0.1-2.55,0.75-2.55,2.15v15.25h-13.25V22.1
		c0-6.3,4.7-10.45,12-10.45H159c7.25,0,12,4.15,12,10.45v19.75H157.7z"/>
	<path class="st0" d="M200.2,41.8h-25.65V31.45h20.35c1.15,0,1.35-0.25,1.35-0.75v-0.15c0-0.55-0.35-0.85-1.35-0.85h-10.45
		c-7.3,0-10.55-2.7-10.55-8.7v-0.6c0-6.75,4.25-8.85,10.55-8.85h26v9.05H190.6c-1.05,0-1.45,0.3-1.45,0.85v0.1
		c0,0.5,0.4,0.8,1.45,0.8h9.6c7.45,0,11.35,2.2,11.35,8.5v0.7C211.55,37.6,208.9,41.8,200.2,41.8z"/>
</g>
</svg>
