<?xml version="1.0" encoding="utf-8"?>
<!-- Generator: Adobe Illustrator 24.3.0, SVG Export Plug-In . SVG Version: 6.00 Build 0)  -->
<svg version="1.1" id="レイヤー_1" xmlns="http://www.w3.org/2000/svg" xmlns:xlink="http://www.w3.org/1999/xlink" x="0px"
	 y="0px" viewBox="0 0 300 100" style="enable-background:new 0 0 300 100;" xml:space="preserve">
<g>
	<g>
		<path d="M68.11,37.24l13.6,13.35h-6.25l-11.2-10.94l-6.42,4.11v6.83h-5.45V28.03h5.45v11.44l16.9-11.44h6.59L68.11,37.24z"/>
		<path d="M91.1,28.31c1.9,0,3.17,0.85,3.17,2.1c0,1.22-1.27,2.07-3.17,2.07s-3.17-0.85-3.17-2.07
			C87.93,29.16,89.19,28.31,91.1,28.31z M93.76,34.92v15.67h-5.28V34.92H93.76z"/>
		<path d="M117.67,37.24l13.6,13.35h-6.25l-11.2-10.94l-6.42,4.11v6.83h-5.45V28.03h5.45v11.44l16.9-11.44h6.59L117.67,37.24z"/>
		<path d="M163.1,42.57c0,5.27-5.37,8.43-14.37,8.43c-8.92,0-14.28-3.17-14.28-8.43V28.03h5.45V42.2c0,3.32,3.3,5.3,8.83,5.3
			c5.58,0,8.87-1.97,8.87-5.3V28.03h5.49V42.57z"/>
		<path d="M198.29,32.76c-1.9-0.6-5.96-1.66-10.65-1.66c-8.28,0-13.9,3.32-13.9,8.21c0,4.89,5.58,8.21,13.77,8.21
			c4.23,0,7.82-0.66,11.03-1.63v3.54c-2.2,0.69-6.21,1.57-11.2,1.57c-11.37,0-19.14-4.73-19.14-11.69c0-6.96,7.82-11.69,19.22-11.69
			c5.32,0,9.21,1.03,10.86,1.6V32.76z"/>
		<path d="M228.08,50.59v-9.84H210.3v9.84h-5.45V28.03h5.45v9.56h17.79v-9.56h5.45v22.57H228.08z"/>
		<path d="M245.2,28.31c1.9,0,3.17,0.85,3.17,2.1c0,1.22-1.27,2.07-3.17,2.07s-3.17-0.85-3.17-2.07
			C242.03,29.16,243.3,28.31,245.2,28.31z M247.86,34.92v15.67h-5.28V34.92H247.86z"/>
	</g>
	<g>
		<path d="M102.43,71.78v-4.55H94.2v4.55h-2.52V61.34h2.52v4.42h8.23v-4.42h2.52v10.44H102.43z"/>
		<path d="M116.23,61.15c5.16,0,8.7,2.19,8.7,5.41c0,3.22-3.54,5.41-8.7,5.41c-5.16,0-8.7-2.19-8.7-5.41
			C107.53,63.34,111.07,61.15,116.23,61.15z M116.23,70.36c3.64,0,6.12-1.54,6.12-3.8c0-2.26-2.48-3.8-6.12-3.8
			c-3.65,0-6.16,1.54-6.16,3.8C110.07,68.82,112.58,70.36,116.23,70.36z"/>
		<path d="M127.9,71.78V61.34h2.52v8.96h7.06v1.48H127.9z"/>
		<path d="M140.35,71.78V61.34h5.06c5.63,0,8.99,1.96,8.99,5.22s-3.32,5.22-8.89,5.22H140.35z M142.87,62.82v7.48h2.6
			c3.99,0,6.37-1.39,6.37-3.74c0-2.35-2.42-3.74-6.47-3.74H142.87z"/>
		<path d="M157.79,71.78V61.34h2.52v10.44H157.79z"/>
		<path d="M169.19,66.04c-0.66-0.43-1.41-0.88-1.82-1.17c0,0.39,0.02,1.03,0.02,1.45v5.46h-2.5v-10.6h0.18l8.99,5.89l1.8,1.19
			c-0.02-0.41-0.02-0.94-0.02-1.45v-5.47h2.5v10.6h-0.16L169.19,66.04z"/>
		<path d="M190.63,71.97c-5.32,0-8.93-2.19-8.93-5.41c0-3.22,3.64-5.41,8.95-5.41c2.52,0,4.12,0.41,5.16,0.75v1.64
			c-1.29-0.41-2.95-0.78-5.1-0.78c-3.85,0-6.47,1.54-6.47,3.8c0,2.26,2.58,3.81,6.39,3.81c1.04,0,2.35-0.13,3.15-0.32v-3.07h2.42
			v4.19C194.79,71.65,192.52,71.97,190.63,71.97z"/>
		<path d="M198.68,71.36v-1.7c1.47,0.45,3.28,0.74,4.81,0.74c2.17,0,3.44-0.46,3.44-1.26c0-0.85-0.88-1.29-3.63-1.88
			c-3.26-0.7-4.73-1.52-4.73-3.19c0-1.81,2.15-2.91,5.71-2.91c1.49,0,3.07,0.2,4.22,0.54v1.64c-1.15-0.38-2.68-0.62-4.13-0.62
			c-2.07,0-3.34,0.46-3.34,1.3c0,0.77,0.86,1.28,3.6,1.88c3.22,0.71,4.79,1.51,4.79,3.15c0,1.86-2.15,2.93-5.8,2.93
			C201.93,71.97,200.03,71.74,198.68,71.36z"/>
	</g>
</g>
</svg>
